# xmcd CD database file
#
# Track frame offsets:
#	150
#	22910
#	46192
#	65167
#	88625
#	102146
#	122745
#	147163
#	171448
#	187675
#	204368
#	221606
#
# Disc length: 3295 seconds
#
# Revision: 0
# Processed by: cddbd v1.5.1PL2 Copyright (c) Steve Scherf et al.
# Submitted via: Feurio! 1.66 - http://www.feurio.com
#
DISCID=a10cdd0c
DTITLE=Van Morrison - Anthology 3/3
DYEAR=1900
DGENRE=
TTITLE0=If You Love Me
TTITLE1=In the Midnight
TTITLE2=It Must Be You
TTITLE3=It Once Was My Life
TTITLE4=Jackie Wilson Said (I'm In Heaven When You Smile)
TTITLE5=Moondance
TTITLE6=New Biography
TTITLE7=On Hyndford Street
TTITLE8=Ordinary Life
TTITLE9=Pagan Streams
TTITLE10=Precious Time
TTITLE11=Reminds Me Of You
EXTD=
EXTT0=
EXTT1=
EXTT2=
EXTT3=
EXTT4=
EXTT5=
EXTT6=
EXTT7=
EXTT8=
EXTT9=
EXTT10=
EXTT11=
PLAYORDER=
